<?xml version="1.0" encoding="UTF-8"?>
<svg id="OBJECTS" xmlns="http://www.w3.org/2000/svg" viewBox="0 0 456.54 414.43">
  <defs>
    <style>
      .cls-1 {
        fill: none;
        stroke: #094700;
        stroke-miterlimit: 10;
        stroke-width: 4px;
      }
    </style>
  </defs>
  <path class="cls-1" d="m293.02,98.41v-.3c-12.45,22.42-24.57,45.03-37.44,67.21-12.97,22.36-26.68,44.29-41.75,69.19,68.96-7.54,126.13-37.07,183.53-66.1-44.37,36.48-94.37,63.51-150.86,70.13-36.68,4.3-63.63,18.42-86.31,44.85-9.13,10.64-19.92,19.15-33.31,27.12,4.23,1.66,6.01,2.73,7.91,3.06,62.8,10.95,125.43,24.58,189.74,12.27l-.46-.46c-14.49,3.94-28.77,10.01-43.51,11.45-54.62,5.33-107.69-6.07-160.44-18.24-8.62-1.99-16.26-3.32-23.96.94-12.98,7.18-27.45,7.52-41.53,9.72-7.16,1.12-14.29,2.46-24.78,4.28,27.14,33.86,54.93,60.48,94.18,70.66,20.57,5.34,41.95,12.89,65.02,4.42-7.38-18.56-29.14-23.85-33.75-45.06,10.31,0,18.81-1.8,26.19.31,33.15,9.48,65.8,5.6,98.72-.88,32.48-6.39,63.01-16.68,88-39.47,6.89-6.29,14.72-12.21,15.11-21.76-27.01-17.63-58.51-6-90.72-18.83,9.37-6.59,14.29-10.71,19.79-13.8,44.97-25.31,87.58-53.57,120.62-94.16,8.59-10.55,18.24-20.43,21.21-35.04-18.23-6.71-34.21-.41-50.34,1.85-15.77,2.2-31.49,4.87-47.32,6.51-15.95,1.65-29.17,14.52-50.78,12.92,31.83-49.78,38.12-102.4,43.62-158.35-38.24,12.55-74.85,18.82-100.62,47.57-15.35-9.81-8.16-32.4-28.32-37.71-34.74,34.55-58.61,76.41-76.13,123.7-10.8-30.29-8.29-63.73-31.22-93.35-46.53,51.92-72.1,110.03-74.85,180.3-7.17-3.31-11.89-5.71-16.79-7.67-5.26-2.11-10.68-3.81-19.26-6.81,1.13,14.14,1.35,24.44,2.92,34.54,1.69,10.94,3.89,21.92,7.26,32.44,2.84,8.85,1.62,20.77,15.24,25.46,2.39-14.51,4.55-27.66,6.72-40.82.64.08,1.28.16,1.92.24-.97,11.93-1.94,23.86-2.92,35.79,1.2.32,2.4.63,3.6.95,2.3-2.94,4.6-5.88,6.35-8.11.96,3.09,2.17,6.97,3.7,11.88,3.9-3.11,6.04-4.82,8.18-6.53l.16-.1c2.54.8,6.79,2.91,7.35,2.19,2.87-3.75,5.5-7.99,6.95-12.48,7.68-23.71,15.44-47.41,22.28-71.37,6.24-21.85,11.33-44.03,16.93-66.07-.68,24.9-3.98,49.31-9.2,73.3-5.19,23.82-12.31,47.23-18.78,71.57,26.92-5.14,26.58-5.23,32.29-29.04,1.86-7.74,6.01-14.93,9.11-22.37l-.14-.35c-2.43,11.79-8.73,23.11-4.95,37.54,17.65-5.83,10.47-23.13,18.18-32.22.6,6.47-7.7,14.48,1.78,21.41,6.58-4.14,12-9.38,19.09-12.88,17.2-8.49,30.4-20.9,33.65-43.53,4.69-32.71,14.16-64.77,22.2-96.95,1.76-7.05,6.09-13.45,9.23-20.16l-.33-.37c-6.38,40.6-17.61,80.41-22.46,124.04,15.52-6.14,22.4-16.5,29.11-26.8,17.03-26.16,33.57-52.64,50.89-78.6,3.5-5.24,9.59-8.76,14.49-13.07Z"/>
</svg>